
  <svg
    width="1000"
    height="1000"
    viewBox="0 0 1000 1000"
    xmlns="http://www.w3.org/2000/svg"
  >
    <defs>
      
      
      <linearGradient id="linearGradientId" gradientTransform="rotate(-45 0.5 0.5)">
      <stop offset="0%"  stop-color="#FF3CAC" />
			<stop offset="50%"  stop-color="#784BA0" />
			<stop offset="100%"  stop-color="#342bc4" />
    </linearGradient>
      
      
      
      
      <clipPath id="shape">
        <path fill="currentColor" d="M829.5,621Q693,742,555.5,800Q418,858,246,781.5Q74,705,150.5,537Q227,369,325,265.5Q423,162,592,167.5Q761,173,863.5,336.5Q966,500,829.5,621Z"></path>
      </clipPath>
    </defs>
  
    

    <g  clip-path="url(#shape)">
      <path fill="url(#linearGradientId)" d="M829.5,621Q693,742,555.5,800Q418,858,246,781.5Q74,705,150.5,537Q227,369,325,265.5Q423,162,592,167.5Q761,173,863.5,336.5Q966,500,829.5,621Z" />
    </g>

    
  
  </svg>