<svg width="50" height="50" viewBox="0 0 50 50" fill="none" xmlns="http://www.w3.org/2000/svg">
<circle cx="23" cy="27" r="23" fill="url(#paint0_linear_102_1028)"/>
<ellipse cx="23.0431" cy="26.957" rx="20.8895" ry="20.8895" fill="black"/>
<path d="M25.5246 20.0808C20.2718 20.1379 14.5184 24.1715 12.6739 29.09C16.5735 26.2848 20.4732 28.3644 24.689 28.7731C28.9048 29.1819 28.2584 28.8809 31.6958 28.8832C33.5403 23.9647 30.7773 20.0237 25.5246 20.0808Z" fill="url(#paint1_linear_102_1028)"/>
<path d="M18.8155 39.2671C13.6553 39.2593 10.8924 35.3183 12.6443 30.4646C17.8901 27.1599 21.2955 30.9043 31.3308 30.4929C29.5789 35.3465 23.9756 39.2749 18.8155 39.2671Z" fill="url(#paint2_linear_102_1028)"/>
<path d="M25.5247 20.0808C20.272 20.1379 14.5185 24.1715 12.674 29.09C16.5736 26.2847 20.4733 28.3644 24.6891 28.7731C28.9049 29.1819 28.2586 28.8809 31.6959 28.8832C33.5404 23.9647 30.7774 20.0237 25.5247 20.0808Z" fill="url(#paint3_linear_102_1028)"/>
<path d="M18.8156 39.2671C13.6555 39.2593 10.8925 35.3183 12.6444 30.4646C17.8902 27.1599 21.2956 30.9043 31.331 30.4929C29.5791 35.3465 23.9757 39.2749 18.8156 39.2671Z" fill="url(#paint4_linear_102_1028)"/>
<path d="M30.7024 25.5644C32.7914 23.4755 32.1672 22.1263 30.1722 17.2666" stroke="url(#paint5_linear_102_1028)" stroke-width="0.767857"/>
<path d="M31.4294 19.7612C34.0096 20.5042 36.7036 19.0148 37.4466 16.4346L36.9976 16.3053C34.4173 15.5623 31.7234 17.0517 30.9804 19.6319L31.4294 19.7612Z" fill="url(#paint6_linear_102_1028)"/>
<path d="M31.2396 18.2174C31.59 15.5553 29.716 13.1132 27.0539 12.7628L26.9929 13.2261C26.6425 15.8882 28.5165 18.3303 31.1786 18.6807L31.2396 18.2174Z" fill="url(#paint7_linear_102_1028)"/>

<defs>
<linearGradient id="paint0_linear_102_1028" x1="23" y1="4" x2="23" y2="50" gradientUnits="userSpaceOnUse">
<stop stop-color="#13ECAB"/>
<stop offset="1" stop-color="#C834F7"/>
</linearGradient>
<linearGradient id="paint1_linear_102_1028" x1="21.4097" y1="32.9406" x2="21.29" y2="19.4158" gradientUnits="userSpaceOnUse">
<stop stop-color="#C834F7"/>
<stop offset="0.384725" stop-color="#718BD3"/>
<stop offset="0.848958" stop-color="#13ECAB"/>
</linearGradient>
<linearGradient id="paint2_linear_102_1028" x1="18.8155" y1="39.2671" x2="18.9133" y2="30.4447" gradientUnits="userSpaceOnUse">
<stop offset="0.0001" stop-color="#C833F7"/>
<stop offset="0.963542" stop-color="#7E7ED8"/>
</linearGradient>
<linearGradient id="paint3_linear_102_1028" x1="21.4098" y1="32.9406" x2="21.2902" y2="19.4158" gradientUnits="userSpaceOnUse">
<stop stop-color="#C834F7"/>
<stop offset="0.384725" stop-color="#718BD3"/>
<stop offset="0.848958" stop-color="#13ECAB"/>
</linearGradient>
<linearGradient id="paint4_linear_102_1028" x1="18.8157" y1="39.2671" x2="18.9134" y2="30.4447" gradientUnits="userSpaceOnUse">
<stop offset="0.0001" stop-color="#C833F7"/>
<stop offset="0.963542" stop-color="#7E7ED8"/>
</linearGradient>
<linearGradient id="paint5_linear_102_1028" x1="31.7134" y1="20.2136" x2="27.6585" y2="28.9256" gradientUnits="userSpaceOnUse">
<stop stop-color="#13ECAB"/>
<stop offset="0.343329" stop-color="#31CDB8"/>
<stop offset="0.487741" stop-color="#4DB1C4"/>
<stop offset="0.854972" stop-color="#817CDA"/>
</linearGradient>
<linearGradient id="paint6_linear_102_1028" x1="34.3817" y1="17.4493" x2="29.8853" y2="22.6981" gradientUnits="userSpaceOnUse">
<stop stop-color="#13ECAB"/>
<stop offset="1" stop-color="#7E7ED8"/>
</linearGradient>
<linearGradient id="paint7_linear_102_1028" x1="28.5137" y1="15.6424" x2="34.3737" y2="19.3068" gradientUnits="userSpaceOnUse">
<stop stop-color="#13ECAB"/>
<stop offset="1" stop-color="#7E7ED8"/>
</linearGradient>
</defs>
</svg>
