<?xml version="1.0" standalone="no"?>
<svg xmlns:xlink="http://www.w3.org/1999/xlink" id="wave" style="transform:rotate(0deg); transition: 0.3s" viewBox="0 0 1440 180" version="1.1" xmlns="http://www.w3.org/2000/svg"><defs><linearGradient id="sw-gradient-0" x1="0" x2="0" y1="1" y2="0"><stop stop-color="rgba(103.699, 2.755, 159.731, 1)" offset="0%"/><stop stop-color="rgba(0, 51.99, 255, 1)" offset="100%"/></linearGradient></defs><path style="transform:translate(0, 0px); opacity:1" fill="url(#sw-gradient-0)" d="M0,54L48,48C96,42,192,30,288,39C384,48,480,78,576,84C672,90,768,72,864,81C960,90,1056,126,1152,123C1248,120,1344,78,1440,72C1536,66,1632,96,1728,114C1824,132,1920,138,2016,126C2112,114,2208,84,2304,78C2400,72,2496,90,2592,108C2688,126,2784,144,2880,147C2976,150,3072,138,3168,129C3264,120,3360,114,3456,93C3552,72,3648,36,3744,39C3840,42,3936,84,4032,111C4128,138,4224,150,4320,141C4416,132,4512,102,4608,78C4704,54,4800,36,4896,24C4992,12,5088,6,5184,6C5280,6,5376,12,5472,18C5568,24,5664,30,5760,45C5856,60,5952,84,6048,78C6144,72,6240,36,6336,24C6432,12,6528,24,6624,42C6720,60,6816,84,6864,96L6912,108L6912,180L6864,180C6816,180,6720,180,6624,180C6528,180,6432,180,6336,180C6240,180,6144,180,6048,180C5952,180,5856,180,5760,180C5664,180,5568,180,5472,180C5376,180,5280,180,5184,180C5088,180,4992,180,4896,180C4800,180,4704,180,4608,180C4512,180,4416,180,4320,180C4224,180,4128,180,4032,180C3936,180,3840,180,3744,180C3648,180,3552,180,3456,180C3360,180,3264,180,3168,180C3072,180,2976,180,2880,180C2784,180,2688,180,2592,180C2496,180,2400,180,2304,180C2208,180,2112,180,2016,180C1920,180,1824,180,1728,180C1632,180,1536,180,1440,180C1344,180,1248,180,1152,180C1056,180,960,180,864,180C768,180,672,180,576,180C480,180,384,180,288,180C192,180,96,180,48,180L0,180Z"/><defs><linearGradient id="sw-gradient-1" x1="0" x2="0" y1="1" y2="0"><stop stop-color="rgba(2, 14, 35, 1)" offset="0%"/><stop stop-color="rgba(2, 14, 35, 1)" offset="100%"/></linearGradient></defs><path style="transform:translate(0, 50px); opacity:0.9" fill="url(#sw-gradient-1)" d="M0,0L48,15C96,30,192,60,288,60C384,60,480,30,576,39C672,48,768,96,864,114C960,132,1056,120,1152,99C1248,78,1344,48,1440,30C1536,12,1632,6,1728,3C1824,0,1920,0,2016,0C2112,0,2208,0,2304,12C2400,24,2496,48,2592,48C2688,48,2784,24,2880,15C2976,6,3072,12,3168,30C3264,48,3360,78,3456,81C3552,84,3648,60,3744,45C3840,30,3936,24,4032,33C4128,42,4224,66,4320,90C4416,114,4512,138,4608,147C4704,156,4800,150,4896,132C4992,114,5088,84,5184,75C5280,66,5376,78,5472,75C5568,72,5664,54,5760,63C5856,72,5952,108,6048,120C6144,132,6240,120,6336,108C6432,96,6528,84,6624,87C6720,90,6816,108,6864,117L6912,126L6912,180L6864,180C6816,180,6720,180,6624,180C6528,180,6432,180,6336,180C6240,180,6144,180,6048,180C5952,180,5856,180,5760,180C5664,180,5568,180,5472,180C5376,180,5280,180,5184,180C5088,180,4992,180,4896,180C4800,180,4704,180,4608,180C4512,180,4416,180,4320,180C4224,180,4128,180,4032,180C3936,180,3840,180,3744,180C3648,180,3552,180,3456,180C3360,180,3264,180,3168,180C3072,180,2976,180,2880,180C2784,180,2688,180,2592,180C2496,180,2400,180,2304,180C2208,180,2112,180,2016,180C1920,180,1824,180,1728,180C1632,180,1536,180,1440,180C1344,180,1248,180,1152,180C1056,180,960,180,864,180C768,180,672,180,576,180C480,180,384,180,288,180C192,180,96,180,48,180L0,180Z"/></svg>